<svg width="21" height="21" viewBox="0 0 21 21" fill="none" xmlns="http://www.w3.org/2000/svg">
<path fill-rule="evenodd" clip-rule="evenodd" d="M10.3984 2.29989C9.88124 2.29989 9.38529 2.50532 9.01962 2.87099C8.65396 3.23666 8.44853 3.73261 8.44853 4.24974V4.47505C8.93122 4.46639 9.46071 4.46639 10.0431 4.46639H10.7545C11.3352 4.46639 11.8655 4.46639 12.3491 4.47505V4.24974C12.3491 3.99361 12.2986 3.73999 12.2006 3.50337C12.1025 3.26674 11.9588 3.05176 11.7777 2.87068C11.5965 2.68961 11.3815 2.54601 11.1448 2.44807C10.9081 2.35013 10.6545 2.29978 10.3984 2.29989ZM13.6481 4.53398V4.24974C13.6481 3.38785 13.3057 2.56127 12.6963 1.95183C12.0868 1.34238 11.2603 1 10.3984 1C9.53649 1 8.7099 1.34238 8.10046 1.95183C7.49101 2.56127 7.14863 3.38785 7.14863 4.24974V4.53398C7.02471 4.54438 6.90598 4.55651 6.78986 4.57124C5.9146 4.67957 5.19359 4.90662 4.58004 5.41531C3.96736 5.924 3.61118 6.59128 3.34341 7.43188C3.08343 8.24648 2.88758 9.29246 2.64146 10.6088L2.62326 10.7041C2.27489 12.5613 2.00105 14.0249 1.94992 15.1784C1.89792 16.3613 2.07471 17.3405 2.74199 18.1439C3.40927 18.9481 4.33913 19.3017 5.51076 19.4689C6.65467 19.6318 8.14262 19.6318 10.0327 19.6318H10.7649C12.6541 19.6318 14.1429 19.6318 15.286 19.4689C16.4576 19.3017 17.3883 18.9481 18.0556 18.1439C18.7229 17.3405 18.8979 16.3613 18.8468 15.1784C18.7966 14.0249 18.5218 12.5613 18.1735 10.7041L18.1561 10.6088C17.9092 9.29246 17.7124 8.24561 17.4542 7.43188C17.1856 6.59128 16.8303 5.924 16.2167 5.41531C15.604 4.90662 14.8821 4.6787 14.0069 4.57124C13.8875 4.55661 13.7679 4.54418 13.6481 4.53398ZM6.94931 5.86161C6.20837 5.9526 5.76034 6.12505 5.41024 6.41623C5.061 6.70567 4.80882 7.11384 4.58177 7.82618C4.35039 8.55412 4.16754 9.52298 3.91103 10.8913C3.55052 12.8126 3.29488 14.1844 3.24895 15.2356C3.20388 16.2668 3.37027 16.8648 3.74204 17.3145C4.11468 17.7626 4.6719 18.0356 5.69448 18.1811C6.7344 18.3302 8.13135 18.3319 10.0855 18.3319H10.7112C12.6654 18.3319 14.0615 18.3302 15.1023 18.182C16.1248 18.0356 16.6821 17.7626 17.0547 17.3145C17.4273 16.8657 17.5929 16.2677 17.5487 15.2347C17.5019 14.1853 17.2462 12.8126 16.8857 10.8913C16.6292 9.52211 16.4472 8.55499 16.215 7.82618C15.9879 7.11384 15.7366 6.70567 15.3865 6.41536C15.0364 6.12505 14.5892 5.9526 13.8474 5.86074C13.0883 5.76715 12.103 5.76628 10.7103 5.76628H10.0864C8.69377 5.76628 7.70845 5.76715 6.94931 5.86161Z" fill="#2F2F2F"/>
</svg>
